<svg width="27" height="27" viewBox="0 0 27 27" fill="none" xmlns="http://www.w3.org/2000/svg">
<path d="M24.1071 0H2.89286C2.12562 0 1.38981 0.304782 0.847298 0.847298C0.304782 1.38981 0 2.12562 0 2.89286L0 24.1071C0 24.8744 0.304782 25.6102 0.847298 26.1527C1.38981 26.6952 2.12562 27 2.89286 27H11.1646V17.8206H7.36775V13.5H11.1646V10.207C11.1646 6.46132 13.3945 4.39232 16.8099 4.39232C18.4456 4.39232 20.156 4.68402 20.156 4.68402V8.36036H18.2714C16.4146 8.36036 15.8354 9.51268 15.8354 10.6945V13.5H19.9806L19.3177 17.8206H15.8354V27H24.1071C24.8744 27 25.6102 26.6952 26.1527 26.1527C26.6952 25.6102 27 24.8744 27 24.1071V2.89286C27 2.12562 26.6952 1.38981 26.1527 0.847298C25.6102 0.304782 24.8744 0 24.1071 0Z" fill="#092936"/>
</svg>
