<svg width="28" height="27" viewBox="0 0 28 27" fill="none" xmlns="http://www.w3.org/2000/svg">
<path d="M13.5117 6.57753C9.67833 6.57753 6.58632 9.66823 6.58632 13.5C6.58632 17.3317 9.67833 20.4224 13.5117 20.4224C17.345 20.4224 20.437 17.3317 20.437 13.5C20.437 9.66823 17.345 6.57753 13.5117 6.57753ZM13.5117 18.0005C11.0345 18.0005 9.0093 15.9822 9.0093 13.5C9.0093 11.0178 11.0284 8.99949 13.5117 8.99949C15.9949 8.99949 18.0141 11.0178 18.0141 13.5C18.0141 15.9822 15.9889 18.0005 13.5117 18.0005ZM22.3356 6.29437C22.3356 7.19206 21.6124 7.909 20.7203 7.909C19.8223 7.909 19.105 7.18603 19.105 6.29437C19.105 5.4027 19.8283 4.67973 20.7203 4.67973C21.6124 4.67973 22.3356 5.4027 22.3356 6.29437ZM26.9224 7.9331C26.8199 5.77021 26.3257 3.85434 24.7405 2.27585C23.1614 0.697366 21.2447 0.203336 19.0809 0.09489C16.8508 -0.03163 10.1665 -0.03163 7.93644 0.09489C5.77867 0.197311 3.86199 0.691341 2.27681 2.26983C0.691632 3.84832 0.203421 5.76419 0.0949299 7.92708C-0.0316433 10.1562 -0.0316433 16.8377 0.0949299 19.0669C0.197394 21.2297 0.691632 23.1456 2.27681 24.7241C3.86199 26.3026 5.77264 26.7966 7.93644 26.9051C10.1665 27.0316 16.8508 27.0316 19.0809 26.9051C21.2447 26.8026 23.1614 26.3086 24.7405 24.7241C26.3197 23.1456 26.8139 21.2297 26.9224 19.0669C27.049 16.8377 27.049 10.1623 26.9224 7.9331ZM24.0414 21.4587C23.5712 22.6395 22.6611 23.5493 21.4737 24.0252C19.6957 24.7301 15.4766 24.5675 13.5117 24.5675C11.5468 24.5675 7.32165 24.7241 5.54963 24.0252C4.36828 23.5553 3.45816 22.6456 2.982 21.4587C2.27681 19.6814 2.43955 15.4641 2.43955 13.5C2.43955 11.5359 2.28284 7.31255 2.982 5.54127C3.45213 4.36042 4.36225 3.45068 5.54963 2.97472C7.32768 2.26983 11.5468 2.4325 13.5117 2.4325C15.4766 2.4325 19.7017 2.27585 21.4737 2.97472C22.6551 3.44466 23.5652 4.35439 24.0414 5.54127C24.7466 7.31858 24.5838 11.5359 24.5838 13.5C24.5838 15.4641 24.7466 19.6874 24.0414 21.4587Z" fill="#092936"/>
</svg>
