<svg width="27" height="27" viewBox="0 0 27 27" fill="none" xmlns="http://www.w3.org/2000/svg">
<path d="M24 0C24.7956 0 25.5587 0.31607 26.1213 0.87868C26.6839 1.44129 27 2.20435 27 3V24C27 24.7956 26.6839 25.5587 26.1213 26.1213C25.5587 26.6839 24.7956 27 24 27H3C2.20435 27 1.44129 26.6839 0.87868 26.1213C0.31607 25.5587 0 24.7956 0 24V3C0 2.20435 0.31607 1.44129 0.87868 0.87868C1.44129 0.31607 2.20435 0 3 0H24ZM23.25 23.25V15.3C23.25 14.0031 22.7348 12.7593 21.8178 11.8422C20.9007 10.9252 19.6569 10.41 18.36 10.41C17.085 10.41 15.6 11.19 14.88 12.36V10.695H10.695V23.25H14.88V15.855C14.88 14.7 15.81 13.755 16.965 13.755C17.522 13.755 18.0561 13.9762 18.4499 14.3701C18.8438 14.7639 19.065 15.298 19.065 15.855V23.25H23.25ZM5.82 8.34C6.48835 8.34 7.12932 8.0745 7.60191 7.60191C8.0745 7.12932 8.34 6.48835 8.34 5.82C8.34 4.425 7.215 3.285 5.82 3.285C5.14768 3.285 4.50289 3.55208 4.02748 4.02748C3.55208 4.50289 3.285 5.14768 3.285 5.82C3.285 7.215 4.425 8.34 5.82 8.34ZM7.905 23.25V10.695H3.75V23.25H7.905Z" fill="#092936"/>
</svg>
